#tb 0: 1/10
0,          0,          0,        1,      579, 0x0d0e3ab8
0,          1,          1,        1,      150, 0x178b3a8c, S=1,     1024, 0xc2f67c9f
0,          2,          2,        1,      155, 0x941743f5, S=1,     1024, 0xc2f67c9f
0,          3,          3,        1,      144, 0x68c73711, S=1,     1024, 0xc2f67c9f
0,          4,          4,        1,      152, 0xaf9a3f2e, S=1,     1024, 0xc2f67c9f
0,          5,          5,        1,      136, 0x68593d85, S=1,     1024, 0xc2f67c9f
0,          6,          6,        1,      134, 0x0dcb373f, S=1,     1024, 0xc2f67c9f
0,          7,          7,        1,      129, 0x3baf3279, S=1,     1024, 0xc2f67c9f
0,          8,          8,        1,      123, 0x9c963148, S=1,     1024, 0xc2f67c9f
0,          9,          9,        1,      123, 0x5c272d6b, S=1,     1024, 0xc2f67c9f
0,         10,         10,        1,      150, 0x5f8d41aa, S=1,     1024, 0xc2f67c9f
0,         11,         11,        1,      134, 0x6f582fee, S=1,     1024, 0xc2f67c9f
0,         12,         12,        1,      134, 0x85d53038, S=1,     1024, 0xc2f67c9f
0,         13,         13,        1,      123, 0x6d2a2cb2, S=1,     1024, 0xc2f67c9f
0,         14,         14,        1,      127, 0x1e78327b, S=1,     1024, 0xc2f67c9f
0,         15,         15,        1,      119, 0xbafc2c31, S=1,     1024, 0xc2f67c9f
0,         16,         16,        1,      138, 0x57553638, S=1,     1024, 0xc2f67c9f
0,         17,         17,        1,      140, 0xf7423adb, S=1,     1024, 0xc2f67c9f
0,         18,         18,        1,      122, 0x7e592f8b, S=1,     1024, 0xc2f67c9f
0,         19,         19,        1,      123, 0xaa7d313c, S=1,     1024, 0xc2f67c9f
0,         20,         20,        1,      140, 0x4fd63b34, S=1,     1024, 0xc2f67c9f
0,         21,         21,        1,      123, 0x67753163, S=1,     1024, 0xc2f67c9f
0,         22,         22,        1,      123, 0x02193147, S=1,     1024, 0xc2f67c9f
0,         23,         23,        1,      124, 0xa85131e9, S=1,     1024, 0xc2f67c9f
0,         24,         24,        1,      122, 0xef8731e2, S=1,     1024, 0xc2f67c9f
0,         25,         25,        1,      122, 0x06d432c9, S=1,     1024, 0xc2f67c9f
0,         26,         26,        1,      123, 0xcc8831cd, S=1,     1024, 0xc2f67c9f
0,         27,         27,        1,      118, 0xa1d33166, S=1,     1024, 0xc2f67c9f
0,         28,         28,        1,      159, 0xcc8c454c, S=1,     1024, 0xc2f67c9f
0,         29,         29,        1,      140, 0x8a0231ad, S=1,     1024, 0xc2f67c9f
0,         30,         30,        1,      163, 0xe78248d2, S=1,     1024, 0xc2f67c9f
0,         31,         31,        1,      142, 0x3b293489, S=1,     1024, 0xc2f67c9f
0,         32,         32,        1,      170, 0x5f504b12, S=1,     1024, 0xc2f67c9f
0,         33,         33,        1,      146, 0x38a53693, S=1,     1024, 0xc2f67c9f
0,         34,         34,        1,      132, 0xb18a3499, S=1,     1024, 0xc2f67c9f
0,         35,         35,        1,      113, 0x55182bda, S=1,     1024, 0xc2f67c9f
0,         36,         36,        1,      132, 0xaced3333, S=1,     1024, 0xc2f67c9f
0,         37,         37,        1,      120, 0x9ffe2e4f, S=1,     1024, 0xc2f67c9f
0,         38,         38,        1,      135, 0x6223351e, S=1,     1024, 0xc2f67c9f
0,         39,         39,        1,      123, 0x269b3058, S=1,     1024, 0xc2f67c9f
0,         40,         40,        1,      119, 0x17052def, S=1,     1024, 0xc2f67c9f
0,         41,         41,        1,      119, 0x36da2ee2, S=1,     1024, 0xc2f67c9f
0,         42,         42,        1,      120, 0x984e31be, S=1,     1024, 0xc2f67c9f
0,         43,         43,        1,      114, 0xfd382c9d, S=1,     1024, 0xc2f67c9f
0,         44,         44,        1,      125, 0x926a36c6, S=1,     1024, 0xc2f67c9f
0,         45,         45,        1,      117, 0xbceb3183, S=1,     1024, 0xc2f67c9f
0,         46,         46,        1,      116, 0xf4c72d82, S=1,     1024, 0xc2f67c9f
0,         47,         47,        1,      124, 0x0c19343c, S=1,     1024, 0xc2f67c9f
0,         48,         48,        1,      117, 0x1f032eb1, S=1,     1024, 0xc2f67c9f
0,         49,         49,        1,      135, 0x31a437e6, S=1,     1024, 0xc2f67c9f
0,         50,         50,        1,      131, 0x4c1735fe, S=1,     1024, 0xc2f67c9f
0,         51,         51,        1,      122, 0xb7603463, S=1,     1024, 0xc2f67c9f
0,         52,         52,        1,      122, 0x7f5e34e1, S=1,     1024, 0xc2f67c9f
0,         53,         53,        1,      124, 0x9562350f, S=1,     1024, 0xc2f67c9f
0,         54,         54,        1,      126, 0x18b33759, S=1,     1024, 0xc2f67c9f
0,         55,         55,        1,      117, 0x748f3243, S=1,     1024, 0xc2f67c9f
0,         56,         56,        1,      109, 0x72832fe7, S=1,     1024, 0xc2f67c9f
0,         57,         57,        1,      120, 0x748a2e38, S=1,     1024, 0xc2f67c9f
0,         58,         58,        1,      120, 0x61f82fb2, S=1,     1024, 0xc2f67c9f
0,         59,         59,        1,      122, 0x2a6b3282, S=1,     1024, 0xc2f67c9f
0,         60,         60,        1,      116, 0x8b542de6, S=1,     1024, 0xc2f67c9f
0,         61,         61,        1,      119, 0xf33c318e, S=1,     1024, 0xc2f67c9f
0,         62,         62,        1,      116, 0xff182f36, S=1,     1024, 0xc2f67c9f
0,         63,         63,        1,      119, 0xeb9e2fcc, S=1,     1024, 0xc2f67c9f
0,         64,         64,        1,      118, 0xe82d304e, S=1,     1024, 0xc2f67c9f
0,         65,         65,        1,      137, 0x98303d30, S=1,     1024, 0xc2f67c9f
0,         66,         66,        1,      149, 0x01123fff, S=1,     1024, 0xc2f67c9f
0,         67,         67,        1,      115, 0x4ca92f75, S=1,     1024, 0xc2f67c9f
0,         68,         68,        1,      131, 0xf4193bc0, S=1,     1024, 0xc2f67c9f
0,         69,         69,        1,      115, 0xda5e2f30, S=1,     1024, 0xc2f67c9f
0,         70,         70,        1,      100, 0x9ba32a58, S=1,     1024, 0xc2f67c9f
0,         71,         71,        1,      109, 0xa47e2c91, S=1,     1024, 0xc2f67c9f
0,         72,         72,        1,      120, 0x22452fd6, S=1,     1024, 0xc2f67c9f
0,         73,         73,        1,      116, 0xd3c52c26, S=1,     1024, 0xc2f67c9f
0,         74,         74,        1,      106, 0x95b42c9f, S=1,     1024, 0xc2f67c9f
0,         75,         75,        1,       96, 0xfdc12639, S=1,     1024, 0xc2f67c9f
0,         76,         76,        1,       99, 0x210f251b, S=1,     1024, 0xc2f67c9f
0,         77,         77,        1,      119, 0x173b341c, S=1,     1024, 0xc2f67c9f
0,         78,         78,        1,      119, 0x3bca2f29, S=1,     1024, 0xc2f67c9f
0,         79,         79,        1,      213, 0x9e905d4c, S=1,     1024, 0xc2f67c9f
0,         80,         80,        1,      209, 0xa0015e94, S=1,     1024, 0xc2f67c9f
0,         81,         81,        1,      120, 0x36762bd4, S=1,     1024, 0xc2f67c9f
0,         82,         82,        1,      119, 0x019b2edc, S=1,     1024, 0xc2f67c9f
0,         83,         83,        1,      124, 0x211d30e7, S=1,     1024, 0xc2f67c9f
0,         84,         84,        1,      125, 0x538732ff, S=1,     1024, 0xc2f67c9f
0,         85,         85,        1,      123, 0x2887308a, S=1,     1024, 0xc2f67c9f
0,         86,         86,        1,      119, 0x7ff930f4, S=1,     1024, 0xc2f67c9f
0,         87,         87,        1,      119, 0xa50c2e16, S=1,     1024, 0xc2f67c9f
0,         88,         88,        1,      107, 0x9ed02cea, S=1,     1024, 0xc2f67c9f
0,         89,         89,        1,      119, 0xc234332a, S=1,     1024, 0xc2f67c9f
0,         90,         90,        1,      115, 0x38353092, S=1,     1024, 0xc2f67c9f
0,         91,         91,        1,      162, 0x6cda4644, S=1,     1024, 0xc2f67c9f
0,         92,         92,        1,      124, 0x2f683081, S=1,     1024, 0xc2f67c9f
0,         93,         93,        1,      116, 0x72952d04, S=1,     1024, 0xc2f67c9f
0,         94,         94,        1,       84, 0x1a532301, S=1,     1024, 0xc2f67c9f
0,         95,         95,        1,      176, 0xfb3c5400, S=1,     1024, 0xc2f67c9f
0,         96,         96,        1,      137, 0x253132d1, S=1,     1024, 0xc2f67c9f
0,         97,         97,        1,      179, 0x2b38528b, S=1,     1024, 0xc2f67c9f
0,         98,         98,        1,      150, 0xbe413cbe, S=1,     1024, 0xc2f67c9f
0,         99,         99,        1,      140, 0x9e93392a, S=1,     1024, 0xc2f67c9f
0,        100,        100,        1,      129, 0x577e331e, S=1,     1024, 0xc2f67c9f
0,        101,        101,        1,      146, 0x16ff3924, S=1,     1024, 0xc2f67c9f
0,        102,        102,        1,      133, 0x756a3163, S=1,     1024, 0xc2f67c9f
0,        103,        103,        1,      190, 0x3e865b77, S=1,     1024, 0xc2f67c9f
0,        104,        104,        1,      159, 0xdf393fc8, S=1,     1024, 0xc2f67c9f
0,        105,        105,        1,      188, 0x84be5168, S=1,     1024, 0xc2f67c9f
0,        106,        106,        1,      163, 0x4c0e41f0, S=1,     1024, 0xc2f67c9f
0,        107,        107,        1,      144, 0x5fda3792, S=1,     1024, 0xc2f67c9f
0,        108,        108,        1,      136, 0x028c3800, S=1,     1024, 0xc2f67c9f
0,        109,        109,        1,      150, 0x75d43a8d, S=1,     1024, 0xc2f67c9f
0,        110,        110,        1,      134, 0x81123999, S=1,     1024, 0xc2f67c9f
0,        111,        111,        1,      198, 0x0a875baa, S=1,     1024, 0xc2f67c9f
0,        112,        112,        1,      169, 0xfdd7458c, S=1,     1024, 0xc2f67c9f
0,        113,        113,        1,      210, 0x9b195be4, S=1,     1024, 0xc2f67c9f
0,        114,        114,        1,      174, 0x0a424a76, S=1,     1024, 0xc2f67c9f
0,        115,        115,        1,      137, 0xb1b535fd, S=1,     1024, 0xc2f67c9f
0,        116,        116,        1,      122, 0x4d3f327b, S=1,     1024, 0xc2f67c9f
0,        117,        117,        1,      152, 0x5e423b0c, S=1,     1024, 0xc2f67c9f
0,        118,        118,        1,      137, 0xd13a39f7, S=1,     1024, 0xc2f67c9f
0,        119,        119,        1,      156, 0x40864321, S=1,     1024, 0xc2f67c9f
0,        120,        120,        1,      140, 0xbe1e393c, S=1,     1024, 0xc2f67c9f
0,        121,        121,        1,      179, 0xaf204635, S=1,     1024, 0xc2f67c9f
0,        122,        122,        1,      116, 0x5ac83123, S=1,     1024, 0xc2f67c9f
0,        123,        123,        1,      118, 0x22bc2ec5, S=1,     1024, 0xc2f67c9f
0,        124,        124,        1,      123, 0xc9b5302d, S=1,     1024, 0xc2f67c9f
0,        125,        125,        1,      125, 0x5cee3077, S=1,     1024, 0xc2f67c9f
0,        126,        126,        1,      194, 0xccc159ca, S=1,     1024, 0xc2f67c9f
0,        127,        127,        1,      122, 0x4d243229, S=1,     1024, 0xc2f67c9f
0,        128,        128,        1,      124, 0x948f330b, S=1,     1024, 0xc2f67c9f
0,        129,        129,        1,      133, 0xd53c35ca, S=1,     1024, 0xc2f67c9f
0,        130,        130,        1,      126, 0xc5543710, S=1,     1024, 0xc2f67c9f
0,        131,        131,        1,      208, 0x6cf15ea2, S=1,     1024, 0xc2f67c9f
0,        132,        132,        1,      131, 0xa8d33505, S=1,     1024, 0xc2f67c9f
0,        133,        133,        1,      114, 0x0ae53001, S=1,     1024, 0xc2f67c9f
0,        134,        134,        1,      129, 0xe9ff37c4, S=1,     1024, 0xc2f67c9f
0,        135,        135,        1,      120, 0x02623359, S=1,     1024, 0xc2f67c9f
0,        136,        136,        1,      164, 0x9dc545e5, S=1,     1024, 0xc2f67c9f
0,        137,        137,        1,      245, 0xc170715a, S=1,     1024, 0xc2f67c9f
0,        138,        138,        1,      215, 0xc93d5fbe, S=1,     1024, 0xc2f67c9f
0,        139,        139,        1,      225, 0x14866349, S=1,     1024, 0xc2f67c9f
0,        140,        140,        1,      123, 0x70cd2b64, S=1,     1024, 0xc2f67c9f
0,        141,        141,        1,      124, 0xe9002fb5, S=1,     1024, 0xc2f67c9f
0,        142,        142,        1,      125, 0x106e309b, S=1,     1024, 0xc2f67c9f
0,        143,        143,        1,      122, 0x050e32b0, S=1,     1024, 0xc2f67c9f
0,        144,        144,        1,      224, 0xf548614f, S=1,     1024, 0xc2f67c9f
0,        145,        145,        1,      239, 0x125c6ade, S=1,     1024, 0xc2f67c9f
0,        146,        146,        1,      127, 0x398734b6, S=1,     1024, 0xc2f67c9f
0,        147,        147,        1,      126, 0x2ff431e5, S=1,     1024, 0xc2f67c9f
0,        148,        148,        1,      124, 0x9583313b, S=1,     1024, 0xc2f67c9f
0,        149,        149,        1,      126, 0xc1fc3692, S=1,     1024, 0xc2f67c9f
0,        150,        150,        1,      123, 0xd0bf3170, S=1,     1024, 0xc2f67c9f
0,        151,        151,        1,      117, 0x651f3032, S=1,     1024, 0xc2f67c9f
0,        152,        152,        1,      119, 0x268a3078, S=1,     1024, 0xc2f67c9f
0,        153,        153,        1,      117, 0x9e4d3283, S=1,     1024, 0xc2f67c9f
0,        154,        154,        1,      149, 0x8f1043ba, S=1,     1024, 0xc2f67c9f
0,        155,        155,        1,      127, 0x352338bc, S=1,     1024, 0xc2f67c9f
0,        156,        156,        1,      113, 0xf877314e, S=1,     1024, 0xc2f67c9f
0,        157,        157,        1,      128, 0x88103a62, S=1,     1024, 0xc2f67c9f
0,        158,        158,        1,      111, 0xbf0630d9, S=1,     1024, 0xc2f67c9f
0,        159,        159,        1,      146, 0x159c44f7, S=1,     1024, 0xc2f67c9f
0,        160,        160,        1,      237, 0x4e45662e, S=1,     1024, 0xc2f67c9f
0,        161,        161,        1,      233, 0x8f9e6354, S=1,     1024, 0xc2f67c9f
0,        162,        162,        1,      160, 0x9c3f431f, S=1,     1024, 0xc2f67c9f
0,        163,        163,        1,      125, 0xbd2b33c6, S=1,     1024, 0xc2f67c9f
0,        164,        164,        1,      131, 0x3ecd3ba5, S=1,     1024, 0xc2f67c9f
0,        165,        165,        1,      231, 0xdf286db6, S=1,     1024, 0xc2f67c9f
0,        166,        166,        1,      153, 0xb6da408d, S=1,     1024, 0xc2f67c9f
0,        167,        167,        1,      126, 0x6741365e, S=1,     1024, 0xc2f67c9f
0,        168,        168,        1,      113, 0x658f2c90, S=1,     1024, 0xc2f67c9f
0,        169,        169,        1,      125, 0xc0033320, S=1,     1024, 0xc2f67c9f
0,        170,        170,        1,      122, 0xe38a2db1, S=1,     1024, 0xc2f67c9f
0,        171,        171,        1,      145, 0x29d63e83, S=1,     1024, 0xc2f67c9f
0,        172,        172,        1,      171, 0xc0e44b70, S=1,     1024, 0xc2f67c9f
